<svg xmlns="http://www.w3.org/2000/svg" viewBox="0 0 906 288" role="img" aria-label="DamnLove Makeup">
<style>
.hrt{transform-origin:198.5px 82px;animation:dmBeat 5s ease-in-out infinite .8s}
@keyframes dmBeat{0%,86%,100%{transform:scale(1)}88%{transform:scale(1.22)}91%{transform:scale(1)}94%{transform:scale(1.16)}97%{transform:scale(1)}}
@media (prefers-reduced-motion: reduce){.hrt{animation:none}}
</style>
<g transform="translate(0,288) scale(0.1,-0.1)">
  <path d="M3335 1440 c0 -795 1 -1120 2 -723 2 398 2 1048 0 1445 -1 398 -2 73
-2 -722z M1508 2438 c-37 -29 -220 -338 -414 -697 l-99 -183 -15 48 c-65 209
-337 164 -603 -101 -352 -349 -477 -768 -285 -952 116 -112 297 -74 476 100
56 56 62 59 62 37 1 -119 155 -227 294 -206 112 18 250 102 240 148 -5 25 4
91 22 163 6 24 -4 16 -53 -45 -94 -117 -170 -170 -241 -170 -25 0 -45 6 -53
17 -19 22 -17 106 5 173 26 79 217 448 401 775 316 560 334 598 342 730 8 114
-33 198 -79 163z m-622 -893 c16 -65 -24 -190 -131 -411 -161 -329 -338 -534
-462 -534 -139 0 -63 331 144 620 178 247 424 425 449 325z" fill="#FFFFFF"/>
  <path d="M1666 1717 c-93 -122 -363 -619 -440 -811 -76 -188 -81 -317 -14
-385 36 -36 57 -37 74 -1 274 564 354 687 591 900 126 113 255 177 238 118
-10 -32 -55 -112 -155 -273 -179 -289 -214 -358 -249 -485 -34 -122 -25 -220
25 -280 49 -58 67 -43 139 110 117 249 230 433 360 589 140 168 334 331 413
347 49 10 49 9 -123 -266 -196 -312 -241 -418 -233 -545 15 -236 291 -326 530
-172 107 69 208 190 242 291 24 70 24 146 0 163 -24 18 -46 -6 -124 -137 -168
-281 -351 -377 -401 -210 -28 92 8 190 161 436 166 267 207 381 180 501 -16
74 -53 113 -107 113 -69 0 -208 -76 -343 -189 -98 -82 -89 -81 -89 -12 1 104
-36 182 -98 208 -73 30 -232 -55 -404 -216 l-86 -80 14 62 c18 77 12 160 -16
215 -26 52 -51 54 -85 9z" fill="#D40094"/>
  <path d="M4320 2275 l0 -176 -34 35 c-71 76 -200 101 -313 63 -240 -83 -245
-478 -7 -566 110 -42 233 -20 310 54 l44 42 0 -54 0 -53 35 0 35 0 -2 413 -3
412 -32 3 -33 3 0 -176z m-142 -141 c174 -72 189 -335 25 -431 -87 -51 -223
-33 -290 39 -64 68 -76 211 -25 300 53 95 185 136 290 92z M7010 2036 l0 -416
35 0 35 0 -2 413 -3 412 -32 3 -33 3 0 -415z M5426 2205 c-21 -7 -53 -28 -72
-46 l-33 -32 -3 39 c-3 34 -6 39 -30 42 l-28 3 0 -295 0 -296 29 0 30 0 3 203
c3 191 4 204 27 243 62 109 227 116 304 13 29 -40 36 -96 37 -286 l0 -173 29
0 30 0 3 203 c3 194 4 204 28 246 46 80 157 109 245 64 78 -41 89 -77 93 -310
l4 -203 30 0 29 0 -3 218 c-3 184 -6 222 -21 249 -84 154 -301 177 -408 43
l-32 -40 -18 29 c-50 83 -173 122 -273 86z M6547 2209 c-51 -12 -87 -32 -117
-64 l-25 -27 -5 44 c-5 40 -7 43 -35 43 l-30 0 -3 -292 -2 -293 35 0 35 0 0
178 c0 97 5 194 10 214 39 139 234 185 343 81 40 -40 47 -79 47 -285 l0 -188
35 0 35 0 0 183 c0 214 -11 266 -68 329 -60 67 -166 99 -255 77z M7423 2206
c-266 -65 -303 -458 -55 -569 244 -107 490 109 416 364 -31 107 -102 176 -210
204 -68 18 -81 18 -151 1z m188 -84 c162 -84 158 -349 -5 -423 -83 -38 -207
-20 -270 39 -94 88 -88 282 10 360 75 60 179 69 265 24z M8690 2206 c-279 -75
-303 -476 -35 -576 110 -40 242 -16 329 61 l38 33 -22 18 c-21 17 -23 17 -54
-7 -146 -111 -370 -51 -406 109 l-8 36 262 2 261 3 3 32 c5 48 -25 152 -54
190 -67 88 -200 130 -314 99z m178 -71 c68 -29 122 -102 122 -165 l0 -30 -229
0 -229 0 7 33 c16 68 61 126 126 160 40 21 154 22 203 2z M4709 2196 c-206
-73 -266 -328 -117 -492 111 -120 296 -128 411 -16 l37 36 0 -52 0 -52 35 0
35 0 -2 293 -3 292 -30 0 c-29 0 -30 -2 -33 -51 l-3 -50 -39 37 c-66 63 -199
88 -291 55z m219 -75 c156 -80 155 -340 -2 -420 -212 -109 -427 112 -320 327
56 112 202 154 322 93z M7860 2198 c0 -7 53 -139 118 -293 l118 -280 35 -3 36
-3 56 133 c31 73 86 202 121 287 68 161 70 171 31 171 -33 0 -38 -9 -146 -274
-65 -159 -96 -225 -102 -215 -5 8 -52 120 -105 249 -97 235 -97 235 -130 238
-21 2 -32 -1 -32 -10z M5610 935 l0 -415 35 0 34 0 3 136 3 137 150 -137 c140
-128 152 -136 190 -136 l40 0 -75 73 c-41 40 -115 110 -165 155 l-90 82 95 88
c52 47 120 110 150 139 l55 53 -44 0 c-42 0 -48 -4 -175 -122 l-131 -123 -3
243 -2 242 -35 0 -35 0 0 -415z M3986 1106 c-21 -8 -54 -29 -72 -47 l-34 -33
0 42 c0 40 -1 42 -30 42 l-30 0 0 -295 0 -295 35 0 35 0 0 200 c0 222 5 247
59 293 91 76 226 51 279 -53 21 -41 22 -57 22 -242 l0 -198 34 0 35 0 3 214
c3 199 4 217 24 243 86 115 249 107 312 -17 21 -41 22 -57 22 -242 l0 -198 35
0 35 0 0 188 c0 233 -10 276 -79 343 -103 100 -290 87 -363 -25 l-22 -33 -30
40 c-58 75 -177 107 -270 73z M5103 1110 c-180 -37 -281 -232 -213 -413 70
-186 320 -248 463 -114 l47 43 0 -53 0 -54 33 3 32 3 0 290 0 290 -32 3 -33 3
0 -56 0 -56 -37 37 c-63 63 -167 93 -260 74z m167 -81 c84 -38 130 -111 130
-208 0 -152 -85 -240 -233 -241 -141 0 -231 91 -231 235 0 180 170 289 334
214z M6308 1107 c-212 -60 -285 -337 -134 -505 101 -111 299 -119 433 -16 38
29 42 49 12 65 -17 9 -25 7 -42 -9 -72 -65 -207 -82 -297 -35 -57 29 -101 85
-114 146 l-6 27 259 0 259 0 5 27 c13 70 -25 183 -80 235 -65 62 -200 92 -295
65z m150 -57 c85 -19 161 -105 162 -182 l0 -28 -231 0 -231 0 7 33 c28 132
152 207 293 177z M7731 1104 c-57 -15 -110 -49 -148 -93 l-22 -26 -1 63 0 62
-30 0 -30 0 0 -415 0 -415 30 0 30 0 0 180 0 180 37 -41 c135 -150 402 -101
472 87 26 68 28 180 4 249 -43 129 -204 208 -342 169z m150 -65 c98 -33 143
-104 143 -224 0 -152 -80 -238 -224 -238 -139 -1 -230 92 -230 235 0 172 150
281 311 227z M6820 922 c0 -217 11 -270 66 -332 95 -105 315 -103 389 2 14 22
15 21 15 -25 0 -46 1 -47 30 -47 l30 0 0 295 0 295 -30 0 -30 0 0 -177 c0
-199 -7 -238 -53 -290 -83 -94 -262 -85 -321 17 -19 31 -22 57 -26 240 l-5
205 -32 3 -33 3 0 -189z" fill="#FFFFFF"/>
</g>
<g class="hrt"><g transform="translate(0,288) scale(0.1,-0.1)"><path d="M1854 2226 c-70 -31 -85 -109 -36 -187 30 -47 148 -159 167 -159 6 0
48 37 92 83 92 94 114 140 94 200 -22 67 -117 96 -163 50 -22 -23 -22 -23 -43
-3 -28 27 -73 33 -111 16z" fill="#D40094"/></g></g>
<rect x="339.75" y="58" width="5.5" height="172" rx="2.5" fill="#FFFFFF"/>
</svg>