<svg xmlns="http://www.w3.org/2000/svg" viewBox="0 0 320 288" role="img" aria-label="DamnLove Makeup mark">
<style>
.hrt{transform-origin:198.5px 82px;animation:dmBeat 5s ease-in-out infinite .8s}
@keyframes dmBeat{0%,86%,100%{transform:scale(1)}88%{transform:scale(1.22)}91%{transform:scale(1)}94%{transform:scale(1.16)}97%{transform:scale(1)}}
@media (prefers-reduced-motion: reduce){.hrt{animation:none}}
</style>
<g transform="translate(0,288) scale(0.1,-0.1)">
  <path d="M1508 2438 c-37 -29 -220 -338 -414 -697 l-99 -183 -15 48 c-65 209
-337 164 -603 -101 -352 -349 -477 -768 -285 -952 116 -112 297 -74 476 100
56 56 62 59 62 37 1 -119 155 -227 294 -206 112 18 250 102 240 148 -5 25 4
91 22 163 6 24 -4 16 -53 -45 -94 -117 -170 -170 -241 -170 -25 0 -45 6 -53
17 -19 22 -17 106 5 173 26 79 217 448 401 775 316 560 334 598 342 730 8 114
-33 198 -79 163z m-622 -893 c16 -65 -24 -190 -131 -411 -161 -329 -338 -534
-462 -534 -139 0 -63 331 144 620 178 247 424 425 449 325z" fill="#FFFFFF"/>
  <path d="M1666 1717 c-93 -122 -363 -619 -440 -811 -76 -188 -81 -317 -14
-385 36 -36 57 -37 74 -1 274 564 354 687 591 900 126 113 255 177 238 118
-10 -32 -55 -112 -155 -273 -179 -289 -214 -358 -249 -485 -34 -122 -25 -220
25 -280 49 -58 67 -43 139 110 117 249 230 433 360 589 140 168 334 331 413
347 49 10 49 9 -123 -266 -196 -312 -241 -418 -233 -545 15 -236 291 -326 530
-172 107 69 208 190 242 291 24 70 24 146 0 163 -24 18 -46 -6 -124 -137 -168
-281 -351 -377 -401 -210 -28 92 8 190 161 436 166 267 207 381 180 501 -16
74 -53 113 -107 113 -69 0 -208 -76 -343 -189 -98 -82 -89 -81 -89 -12 1 104
-36 182 -98 208 -73 30 -232 -55 -404 -216 l-86 -80 14 62 c18 77 12 160 -16
215 -26 52 -51 54 -85 9z" fill="#D40094"/>
</g>
<g class="hrt"><g transform="translate(0,288) scale(0.1,-0.1)"><path d="M1854 2226 c-70 -31 -85 -109 -36 -187 30 -47 148 -159 167 -159 6 0
48 37 92 83 92 94 114 140 94 200 -22 67 -117 96 -163 50 -22 -23 -22 -23 -43
-3 -28 27 -73 33 -111 16z" fill="#D40094"/></g></g>
</svg>